<mxfile host="app.diagrams.net" modified="2021-09-22T10:38:42.802Z" agent="5.0 (Windows NT 10.0; Win64; x64) AppleWebKit/537.36 (KHTML, like Gecko) Chrome/93.0.4577.82 Safari/537.36" etag="Km0w0ZRD_on7ZAo1VPQR" version="15.2.9" type="github">
  <diagram id="eABWH-wZrEVv3aBb6c0K" name="Page-1">
    <mxGraphModel dx="1449" dy="562" grid="1" gridSize="10" guides="1" tooltips="1" connect="1" arrows="1" fold="1" page="1" pageScale="1" pageWidth="850" pageHeight="1100" math="0" shadow="0">
      <root>
        <mxCell id="0" />
        <mxCell id="1" parent="0" />
        <mxCell id="utAql28Y_BoSjyS8T37b-1" value="DOCKER CLIENT" style="rounded=1;whiteSpace=wrap;html=1;" vertex="1" parent="1">
          <mxGeometry x="320" y="120" width="220" height="60" as="geometry" />
        </mxCell>
        <mxCell id="utAql28Y_BoSjyS8T37b-2" value="DOCKER SERVER&lt;br&gt;DOCKER DAEMON" style="rounded=1;whiteSpace=wrap;html=1;" vertex="1" parent="1">
          <mxGeometry x="320" y="240" width="220" height="60" as="geometry" />
        </mxCell>
        <mxCell id="utAql28Y_BoSjyS8T37b-3" value="CONTAINER D" style="rounded=1;whiteSpace=wrap;html=1;" vertex="1" parent="1">
          <mxGeometry x="320" y="370" width="230" height="60" as="geometry" />
        </mxCell>
        <mxCell id="utAql28Y_BoSjyS8T37b-4" value="RUN C" style="rounded=1;whiteSpace=wrap;html=1;" vertex="1" parent="1">
          <mxGeometry x="190" y="510" width="120" height="60" as="geometry" />
        </mxCell>
        <mxCell id="utAql28Y_BoSjyS8T37b-5" value="" style="rounded=1;whiteSpace=wrap;html=1;" vertex="1" parent="1">
          <mxGeometry x="350" y="510" width="120" height="60" as="geometry" />
        </mxCell>
        <mxCell id="utAql28Y_BoSjyS8T37b-6" value="" style="rounded=1;whiteSpace=wrap;html=1;" vertex="1" parent="1">
          <mxGeometry x="510" y="510" width="120" height="60" as="geometry" />
        </mxCell>
        <mxCell id="utAql28Y_BoSjyS8T37b-7" value="" style="rounded=1;whiteSpace=wrap;html=1;" vertex="1" parent="1">
          <mxGeometry x="660" y="510" width="120" height="60" as="geometry" />
        </mxCell>
        <mxCell id="utAql28Y_BoSjyS8T37b-8" value="RUN C" style="rounded=1;whiteSpace=wrap;html=1;" vertex="1" parent="1">
          <mxGeometry x="350" y="510" width="120" height="60" as="geometry" />
        </mxCell>
        <mxCell id="utAql28Y_BoSjyS8T37b-9" value="RUN C" style="rounded=1;whiteSpace=wrap;html=1;" vertex="1" parent="1">
          <mxGeometry x="510" y="510" width="120" height="60" as="geometry" />
        </mxCell>
        <mxCell id="utAql28Y_BoSjyS8T37b-10" value="RUN C" style="rounded=1;whiteSpace=wrap;html=1;" vertex="1" parent="1">
          <mxGeometry x="660" y="510" width="120" height="60" as="geometry" />
        </mxCell>
        <mxCell id="utAql28Y_BoSjyS8T37b-12" value="CONATINER" style="rounded=1;whiteSpace=wrap;html=1;" vertex="1" parent="1">
          <mxGeometry x="190" y="610" width="120" height="60" as="geometry" />
        </mxCell>
        <mxCell id="utAql28Y_BoSjyS8T37b-14" value="CONATINER" style="rounded=1;whiteSpace=wrap;html=1;" vertex="1" parent="1">
          <mxGeometry x="350" y="610" width="120" height="60" as="geometry" />
        </mxCell>
        <mxCell id="utAql28Y_BoSjyS8T37b-15" value="CONATINER" style="rounded=1;whiteSpace=wrap;html=1;" vertex="1" parent="1">
          <mxGeometry x="510" y="610" width="120" height="60" as="geometry" />
        </mxCell>
        <mxCell id="utAql28Y_BoSjyS8T37b-16" value="CONATINER" style="rounded=1;whiteSpace=wrap;html=1;" vertex="1" parent="1">
          <mxGeometry x="670" y="610" width="120" height="60" as="geometry" />
        </mxCell>
      </root>
    </mxGraphModel>
  </diagram>
</mxfile>
